<svg width="48" height="49" viewBox="0 0 48 49" fill="none" xmlns="http://www.w3.org/2000/svg">
<path d="M24 0.930664C17.487 0.930664 16.668 0.960664 14.109 1.07466C11.55 1.19466 9.807 1.59666 8.28 2.19066C6.67828 2.79312 5.22747 3.73814 4.029 4.95966C2.80823 6.15875 1.86332 7.60938 1.26 9.21066C0.666 10.7347 0.261 12.4807 0.144 15.0307C0.03 17.5957 0 18.4117 0 24.9337C0 31.4497 0.03 32.2657 0.144 34.8247C0.264 37.3807 0.666 39.1237 1.26 40.6507C1.875 42.2287 2.694 43.5667 4.029 44.9017C5.361 46.2367 6.699 47.0587 8.277 47.6707C9.807 48.2647 11.547 48.6697 14.103 48.7867C16.665 48.9007 17.481 48.9307 24 48.9307C30.519 48.9307 31.332 48.9007 33.894 48.7867C36.447 48.6667 38.196 48.2647 39.723 47.6707C41.3237 47.0679 42.7735 46.1229 43.971 44.9017C45.306 43.5667 46.125 42.2287 46.74 40.6507C47.331 39.1237 47.736 37.3807 47.856 34.8247C47.97 32.2657 48 31.4497 48 24.9307C48 18.4117 47.97 17.5957 47.856 15.0337C47.736 12.4807 47.331 10.7347 46.74 9.21066C46.1368 7.60934 45.1918 6.15869 43.971 4.95966C42.7729 3.73769 41.322 2.7926 39.72 2.19066C38.19 1.59666 36.444 1.19166 33.891 1.07466C31.329 0.960664 30.516 0.930664 23.994 0.930664H24.003H24ZM21.849 5.25666H24.003C30.411 5.25666 31.17 5.27766 33.699 5.39466C36.039 5.49966 37.311 5.89266 38.157 6.21966C39.276 6.65466 40.077 7.17666 40.917 8.01666C41.757 8.85666 42.276 9.65466 42.711 10.7767C43.041 11.6197 43.431 12.8917 43.536 15.2317C43.653 17.7607 43.677 18.5197 43.677 24.9247C43.677 31.3297 43.653 32.0917 43.536 34.6207C43.431 36.9607 43.038 38.2297 42.711 39.0757C42.3262 40.1177 41.7121 41.06 40.914 41.8327C40.074 42.6727 39.276 43.1917 38.154 43.6267C37.314 43.9567 36.042 44.3467 33.699 44.4547C31.17 44.5687 30.411 44.5957 24.003 44.5957C17.595 44.5957 16.833 44.5687 14.304 44.4547C11.964 44.3467 10.695 43.9567 9.849 43.6267C8.8065 43.2424 7.86338 42.6294 7.089 41.8327C6.29025 41.0588 5.67517 40.1156 5.289 39.0727C4.962 38.2297 4.569 36.9577 4.464 34.6177C4.35 32.0887 4.326 31.3297 4.326 24.9187C4.326 18.5107 4.35 17.7547 4.464 15.2257C4.572 12.8857 4.962 11.6137 5.292 10.7677C5.727 9.64866 6.249 8.84766 7.089 8.00766C7.929 7.16766 8.727 6.64866 9.849 6.21366C10.695 5.88366 11.964 5.49366 14.304 5.38566C16.518 5.28366 17.376 5.25366 21.849 5.25066V5.25666ZM36.813 9.24066C36.4348 9.24066 36.0603 9.31516 35.7109 9.45989C35.3615 9.60462 35.044 9.81676 34.7765 10.0842C34.5091 10.3516 34.297 10.6691 34.1522 11.0185C34.0075 11.368 33.933 11.7425 33.933 12.1207C33.933 12.4989 34.0075 12.8734 34.1522 13.2228C34.297 13.5722 34.5091 13.8897 34.7765 14.1571C35.044 14.4246 35.3615 14.6367 35.7109 14.7814C36.0603 14.9262 36.4348 15.0007 36.813 15.0007C37.5768 15.0007 38.3094 14.6972 38.8495 14.1571C39.3896 13.617 39.693 12.8845 39.693 12.1207C39.693 11.3568 39.3896 10.6243 38.8495 10.0842C38.3094 9.54409 37.5768 9.24066 36.813 9.24066ZM24.003 12.6067C22.3682 12.5812 20.7447 12.8811 19.2269 13.4891C17.7092 14.0971 16.3275 15.0009 15.1625 16.1479C13.9974 17.295 13.0721 18.6624 12.4405 20.1704C11.809 21.6785 11.4837 23.2972 11.4837 24.9322C11.4837 26.5672 11.809 28.1858 12.4405 29.6939C13.0721 31.202 13.9974 32.5693 15.1625 33.7164C16.3275 34.8635 17.7092 35.7673 19.2269 36.3752C20.7447 36.9832 22.3682 37.2832 24.003 37.2577C27.2386 37.2072 30.3246 35.8864 32.5949 33.5804C34.8652 31.2744 36.1377 28.1682 36.1377 24.9322C36.1377 21.6961 34.8652 18.5899 32.5949 16.2839C30.3246 13.9779 27.2386 12.6571 24.003 12.6067ZM24.003 16.9297C26.125 16.9297 28.1601 17.7726 29.6606 19.2731C31.161 20.7736 32.004 22.8087 32.004 24.9307C32.004 27.0527 31.161 29.0877 29.6606 30.5882C28.1601 32.0887 26.125 32.9317 24.003 32.9317C21.881 32.9317 19.8459 32.0887 18.3454 30.5882C16.845 29.0877 16.002 27.0527 16.002 24.9307C16.002 22.8087 16.845 20.7736 18.3454 19.2731C19.8459 17.7726 21.881 16.9297 24.003 16.9297Z" fill="#353535"/>
</svg>
