<?xml version="1.0" encoding="UTF-8"?>
<svg version="1.1" xmlns="http://www.w3.org/2000/svg" width="12" height="12">
<path d="M0 0 C3 0.25 3 0.25 5 2.25 C5.25 5.25 5.25 5.25 5 8.25 C3 10.25 3 10.25 0 10.5 C-3 10.25 -3 10.25 -5 8.25 C-5.25 5.25 -5.25 5.25 -5 2.25 C-3 0.25 -3 0.25 0 0 Z M-2 2.25 C-2.99 3.735 -2.99 3.735 -4 5.25 C-2.68 6.57 -1.36 7.89 0 9.25 C0.99 8.26 1.98 7.27 3 6.25 C1.68 6.25 0.36 6.25 -1 6.25 C-1.33 4.93 -1.66 3.61 -2 2.25 Z M1 2.25 C1 2.91 1 3.57 1 4.25 C1.66 3.92 2.32 3.59 3 3.25 C2.34 2.92 1.68 2.59 1 2.25 Z " fill="#FFFFFF" transform="translate(6,0.75)"/>
</svg>
